<svg xmlns="http://www.w3.org/2000/svg" viewBox="0 0 1200 630" width="1200" height="630" role="img" aria-label="OWASP Top 10:2025 ep.03 cover">
  <style>
  :root {
    --c-bg: #f1f5f9;
    --c-fg: #0f172a;
    --c-muted: #64748b;
    --c-accent: #7c3aed; --c-accent-2: #a78bfa; --c-accent-3: #c4b5fd;
    --c-num: rgba(124, 58, 237, 0.14);
    --c-dot: rgba(124, 58, 237, 0.10);
    --c-line: rgba(124, 58, 237, 0.16);
  }
  @media (prefers-color-scheme: dark) {
    :root {
      --c-bg: #0b1220;
      --c-fg: #e2e8f0;
      --c-muted: #94a3b8;
      --c-accent: #a78bfa; --c-accent-2: #7c3aed; --c-accent-3: #4c1d95;
      --c-num: rgba(167, 139, 250, 0.16);
      --c-dot: rgba(167, 139, 250, 0.10);
      --c-line: rgba(167, 139, 250, 0.20);
    }
  }
  .cover-bg { fill: var(--c-bg); }
  .ep-number {
    font: 900 240px ui-monospace, "SF Mono", Menlo, monospace;
    fill: var(--c-num); letter-spacing: -0.04em;
  }
</style>
  <defs>
    <pattern id="dotsWS03" x="0" y="0" width="28" height="28" patternUnits="userSpaceOnUse">
      <circle cx="14" cy="14" r="1.4" fill="var(--c-dot)"/>
    </pattern>
    <radialGradient id="haloWS03a" cx="0.85" cy="0.2" r="0.55"><stop offset="0" stop-color="var(--c-accent)" stop-opacity="0.24"/><stop offset="1" stop-color="var(--c-accent)" stop-opacity="0"/></radialGradient>
    <radialGradient id="haloWS03b" cx="0.15" cy="0.85" r="0.55"><stop offset="0" stop-color="var(--c-accent-3)" stop-opacity="0.30"/><stop offset="1" stop-color="var(--c-accent-3)" stop-opacity="0"/></radialGradient>
  </defs>

  <rect class="cover-bg" width="1200" height="630"/>
  <rect width="1200" height="630" fill="url(#dotsWS03)"/>
  <rect width="1200" height="630" fill="url(#haloWS03a)"/>
  <rect width="1200" height="630" fill="url(#haloWS03b)"/>

  <rect x="-80" y="-100" width="420" height="420" rx="60" fill="none" stroke="var(--c-line)" stroke-width="1.5" transform="rotate(-8 130 110)"/>
  <circle cx="1120" cy="540" r="220" fill="none" stroke="var(--c-line)" stroke-width="1.5"/>

  <line x1="600" y1="40" x2="600" y2="590" stroke="var(--c-accent)" stroke-width="3" stroke-dasharray="10 8"/>
  <rect x="588" y="20" width="24" height="14" rx="3" fill="var(--c-accent)"/>
  <rect x="588" y="596" width="24" height="14" rx="3" fill="var(--c-accent)"/>

  <g transform="translate(60, 100)">
    <rect width="500" height="430" rx="20" fill="var(--c-accent)" fill-opacity="0.06" stroke="var(--c-accent)" stroke-width="2"/>
    <rect x="24" y="24" width="80" height="14" rx="4" fill="var(--c-accent)"/>
    <rect x="120" y="26" width="100" height="10" rx="4" fill="var(--c-accent)" fill-opacity="0.5"/>

    <g transform="translate(24, 60)">
      <rect width="220" height="80" rx="14" fill="var(--c-accent-2)" fill-opacity="0.55"/>
      <rect x="14" y="14" width="20" height="20" rx="3" fill="var(--c-bg)"/>
      <rect x="42" y="18" width="160" height="12" rx="4" fill="var(--c-bg)" fill-opacity="0.85"/>
      <rect x="42" y="36" width="120" height="8" rx="3" fill="var(--c-bg)" fill-opacity="0.6"/>
      <rect x="14" y="54" width="180" height="12" rx="4" fill="var(--c-bg)" fill-opacity="0.45"/>
    </g>
    <g transform="translate(252, 60)">
      <rect width="220" height="80" rx="14" fill="var(--c-accent)" fill-opacity="0.18" stroke="var(--c-accent)" stroke-width="2"/>
      <rect x="14" y="14" width="20" height="20" rx="3" fill="var(--c-accent)"/>
      <rect x="42" y="18" width="160" height="12" rx="4" fill="var(--c-accent)" fill-opacity="0.55"/>
      <rect x="42" y="36" width="100" height="8" rx="3" fill="var(--c-accent)" fill-opacity="0.4"/>
      <rect x="14" y="54" width="160" height="12" rx="4" fill="var(--c-accent)" fill-opacity="0.3"/>
    </g>
    <g transform="translate(24, 156)">
      <rect width="220" height="80" rx="14" fill="var(--c-accent-3)" fill-opacity="0.6"/>
      <circle cx="34" cy="32" r="14" fill="var(--c-accent)"/>
      <rect x="58" y="22" width="140" height="12" rx="4" fill="var(--c-accent)" fill-opacity="0.7"/>
      <rect x="58" y="40" width="100" height="8" rx="3" fill="var(--c-accent)" fill-opacity="0.5"/>
      <rect x="14" y="56" width="180" height="12" rx="4" fill="var(--c-bg)" fill-opacity="0.6"/>
    </g>
    <g transform="translate(252, 156)">
      <rect width="220" height="80" rx="14" fill="none" stroke="var(--c-accent)" stroke-width="2" stroke-dasharray="6 5"/>
      <rect x="14" y="14" width="40" height="14" rx="3" fill="var(--c-accent)" fill-opacity="0.5"/>
      <rect x="14" y="34" width="120" height="8" rx="3" fill="var(--c-accent)" fill-opacity="0.4"/>
      <rect x="14" y="48" width="180" height="20" rx="5" fill="var(--c-accent)" fill-opacity="0.18" stroke="var(--c-accent)" stroke-width="1"/>
    </g>
    <g transform="translate(24, 252)">
      <rect width="220" height="80" rx="14" fill="var(--c-accent)" fill-opacity="0.55"/>
      <polygon points="32,16 56,40 32,64 8,40" fill="var(--c-bg)"/>
      <rect x="68" y="22" width="140" height="12" rx="4" fill="var(--c-bg)" fill-opacity="0.85"/>
      <rect x="68" y="40" width="100" height="8" rx="3" fill="var(--c-bg)" fill-opacity="0.6"/>
      <rect x="14" y="56" width="180" height="12" rx="4" fill="var(--c-bg)" fill-opacity="0.45"/>
    </g>
    <g transform="translate(252, 252)">
      <rect width="220" height="80" rx="14" fill="var(--c-accent-2)" fill-opacity="0.35"/>
      <rect x="14" y="14" width="40" height="40" rx="6" fill="var(--c-accent-2)"/>
      <rect x="62" y="20" width="140" height="10" rx="4" fill="var(--c-accent-2)" fill-opacity="0.85"/>
      <rect x="62" y="36" width="100" height="8" rx="3" fill="var(--c-accent-2)" fill-opacity="0.55"/>
    </g>

    <g transform="translate(24, 348)">
      <rect width="448" height="60" rx="12" fill="var(--c-accent)" fill-opacity="0.10"/>
      <rect width="448" height="60" rx="12" fill="none" stroke="var(--c-accent)" stroke-width="1.5" stroke-dasharray="6 4"/>
      <rect x="14" y="22" width="40" height="14" rx="4" fill="var(--c-accent)"/>
      <rect x="64" y="24" width="220" height="10" rx="4" fill="var(--c-accent)" fill-opacity="0.55"/>
      <rect x="64" y="38" width="180" height="6" rx="3" fill="var(--c-accent)" fill-opacity="0.4"/>
      <rect x="320" y="20" width="100" height="20" rx="6" fill="var(--c-accent)"/>
    </g>
  </g>

  <g stroke="var(--c-accent)" stroke-width="4" fill="none" stroke-linecap="round">
    <path d="M 580 200 L 560 220 L 540 200" stroke-dasharray="0"/>
    <path d="M 580 260 L 540 260" stroke-dasharray="0"/>
    <path d="M 540 260 L 552 250 M 540 260 L 552 270"/>
    <path d="M 580 320 L 560 340 L 540 320"/>
    <line x1="500" y1="200" x2="540" y2="200" stroke-dasharray="0"/>
    <line x1="500" y1="320" x2="540" y2="320" stroke-dasharray="0"/>
    <rect x="478" y="180" width="44" height="40" rx="6" fill="var(--c-accent)" fill-opacity="0.6" stroke="none"/>
    <rect x="478" y="240" width="44" height="40" rx="6" fill="var(--c-accent)" fill-opacity="0.6" stroke="none"/>
    <rect x="478" y="300" width="44" height="40" rx="6" fill="var(--c-accent)" fill-opacity="0.6" stroke="none"/>
  </g>

  <g transform="translate(660, 100)">
    <rect width="480" height="430" rx="20" fill="var(--c-accent-2)" fill-opacity="0.20"/>
    <rect width="480" height="430" rx="20" fill="none" stroke="var(--c-accent)" stroke-width="2"/>
    <rect x="24" y="24" width="80" height="14" rx="4" fill="var(--c-accent)"/>
    <rect x="120" y="26" width="80" height="10" rx="4" fill="var(--c-accent)" fill-opacity="0.5"/>

    <g transform="translate(40, 70)">
      <circle r="48" fill="var(--c-accent)"/>
      <path d="M -22 0 L -10 12 L 22 -18" stroke="var(--c-bg)" stroke-width="6" fill="none" stroke-linecap="round" stroke-linejoin="round"/>
      <circle r="68" fill="none" stroke="var(--c-accent)" stroke-width="2" stroke-dasharray="4 6"/>
    </g>
    <rect x="120" y="60" width="320" height="14" rx="4" fill="var(--c-accent)"/>
    <rect x="120" y="84" width="220" height="10" rx="4" fill="var(--c-accent)" fill-opacity="0.55"/>
    <rect x="120" y="100" width="180" height="8" rx="3" fill="var(--c-accent)" fill-opacity="0.4"/>

    <g transform="translate(40, 200)">
      <rect width="80" height="80" rx="14" fill="var(--c-accent-2)" fill-opacity="0.8"/>
      <path d="M 26 28 L 54 28 L 54 56 L 26 56 Z" fill="var(--c-bg)"/>
      <line x1="30" y1="36" x2="50" y2="36" stroke="var(--c-accent-2)" stroke-width="2"/>
      <line x1="30" y1="44" x2="44" y2="44" stroke="var(--c-accent-2)" stroke-width="2"/>
      <line x1="30" y1="52" x2="48" y2="52" stroke="var(--c-accent-2)" stroke-width="2"/>
    </g>
    <rect x="140" y="220" width="300" height="14" rx="4" fill="var(--c-accent)"/>
    <rect x="140" y="244" width="280" height="10" rx="4" fill="var(--c-accent)" fill-opacity="0.55"/>
    <rect x="140" y="260" width="220" height="8" rx="3" fill="var(--c-accent)" fill-opacity="0.4"/>

    <g transform="translate(40, 320)">
      <rect width="80" height="80" rx="14" fill="var(--c-accent)" fill-opacity="0.18" stroke="var(--c-accent)" stroke-width="3"/>
      <path d="M 20 40 L 36 56 L 60 24" stroke="var(--c-accent)" stroke-width="6" fill="none" stroke-linecap="round" stroke-linejoin="round"/>
    </g>
    <rect x="140" y="340" width="300" height="14" rx="4" fill="var(--c-accent)"/>
    <rect x="140" y="364" width="250" height="10" rx="4" fill="var(--c-accent)" fill-opacity="0.55"/>
    <rect x="140" y="380" width="200" height="8" rx="3" fill="var(--c-accent)" fill-opacity="0.4"/>
  </g>

  <text class="ep-number" x="1164" y="594" text-anchor="end">03</text>
</svg>
